<svg width="34" height="34" viewBox="0 0 34 34" fill="none" xmlns="http://www.w3.org/2000/svg">
<g id="&#240;&#159;&#166;&#134; icon &#34;rounded github&#34;">
<path id="Vector" d="M16.371 21.4113C17.0699 21.4113 17.668 21.5793 18.1653 21.9153C18.6626 22.2513 18.9113 22.6478 18.9113 23.1048C18.9113 23.5887 18.6626 23.9987 18.1653 24.3347C17.668 24.6707 17.0699 24.8387 16.371 24.8387C15.6452 24.8387 15.0336 24.6707 14.5363 24.3347C14.039 23.9987 13.7903 23.5887 13.7903 23.1048C13.7903 22.6478 14.039 22.2513 14.5363 21.9153C15.0336 21.5793 15.6452 21.4113 16.371 21.4113ZM16.0484 14.2339C15.4301 14.2339 14.8992 14.0188 14.4556 13.5887C14.0121 13.1586 13.7903 12.6344 13.7903 12.0161C13.7903 11.3978 14.0121 10.8737 14.4556 10.4435C14.8992 10.0134 15.4301 9.79839 16.0484 9.79839C16.6667 9.79839 17.1909 10.0134 17.621 10.4435C18.0511 10.8737 18.2661 11.3978 18.2661 12.0161C18.2661 12.6344 18.0511 13.1586 17.621 13.5887C17.1909 14.0188 16.6667 14.2339 16.0484 14.2339ZM25.3226 0C26.4785 0 27.5672 0.221774 28.5887 0.665323C29.6102 1.10887 30.504 1.71371 31.2702 2.47984C32.0363 3.24597 32.6411 4.13978 33.0847 5.16129C33.5282 6.1828 33.75 7.27151 33.75 8.42742V25.2823C33.75 26.4382 33.5282 27.5336 33.0847 28.5685C32.6411 29.6035 32.0363 30.504 31.2702 31.2702C30.504 32.0363 29.6102 32.6411 28.5887 33.0847C27.5672 33.5282 26.4785 33.75 25.3226 33.75H8.42742C7.27151 33.75 6.1828 33.5282 5.16129 33.0847C4.13978 32.6411 3.24597 32.0363 2.47984 31.2702C1.71371 30.504 1.10887 29.6035 0.665323 28.5685C0.221774 27.5336 0 26.4382 0 25.2823V8.42742C0 7.27151 0.221774 6.1828 0.665323 5.16129C1.10887 4.13978 1.71371 3.24597 2.47984 2.47984C3.24597 1.71371 4.13978 1.10887 5.16129 0.665323C6.1828 0.221774 7.27151 0 8.42742 0H25.3226ZM16.3306 27.5806C17.1371 27.5806 17.8898 27.4597 18.5887 27.2177C19.2876 26.9758 19.8992 26.6532 20.4234 26.25C20.9476 25.8468 21.3642 25.3763 21.6734 24.8387C21.9825 24.3011 22.1371 23.7231 22.1371 23.1048C22.1371 22.5134 21.9892 21.9489 21.6935 21.4113C21.3978 20.8737 20.9879 20.4032 20.4637 20C19.9395 19.5968 19.328 19.2742 18.629 19.0323C17.9301 18.7903 17.1774 18.6694 16.371 18.6694C16.2903 18.6694 16.2097 18.6761 16.129 18.6895C16.0484 18.703 15.9677 18.7097 15.8871 18.7097C15.8333 18.5753 15.793 18.4207 15.7661 18.246C15.7392 18.0712 15.7258 17.9032 15.7258 17.7419C15.7258 17.5538 15.7392 17.3454 15.7661 17.1169C15.793 16.8884 15.8333 16.7742 15.8871 16.7742H16.0484C16.7204 16.7742 17.3454 16.6465 17.9234 16.3911C18.5013 16.1358 19.0054 15.793 19.4355 15.3629C19.8656 14.9328 20.2083 14.4288 20.4637 13.8508C20.7191 13.2728 20.8468 12.6613 20.8468 12.0161C20.8468 11.7204 20.7863 11.3911 20.6653 11.0282C20.5444 10.6653 20.4032 10.4032 20.2419 10.2419L21.8952 9.31452V6.16935L18.4274 8.06452C18.0511 7.7957 17.6613 7.59409 17.2581 7.45968C16.8548 7.32527 16.3978 7.25806 15.8871 7.25806C15.2151 7.25806 14.5901 7.38575 14.0121 7.64113C13.4341 7.89651 12.9301 8.23925 12.5 8.66935C12.0699 9.09946 11.7339 9.60349 11.4919 10.1815C11.25 10.7594 11.129 11.371 11.129 12.0161C11.129 12.7688 11.297 13.461 11.6331 14.0927C11.9691 14.7245 12.4059 15.2554 12.9435 15.6855C12.621 16.3306 12.4597 17.0161 12.4597 17.7419C12.4597 18.0645 12.4933 18.3804 12.5605 18.6895C12.6277 18.9987 12.7285 19.3011 12.8629 19.5968C12.164 20 11.6062 20.5108 11.1895 21.129C10.7728 21.7473 10.5645 22.4059 10.5645 23.1048C10.5645 23.7231 10.7124 24.3011 11.0081 24.8387C11.3038 25.3763 11.7137 25.8468 12.2379 26.25C12.7621 26.6532 13.3737 26.9758 14.0726 27.2177C14.7715 27.4597 15.5242 27.5806 16.3306 27.5806Z" fill="black"/>
</g>
</svg>
