<svg width="34" height="34" viewBox="0 0 34 34" fill="none" xmlns="http://www.w3.org/2000/svg">
<g id="&#240;&#159;&#166;&#134; icon &#34;rounded linkedin&#34;">
<path id="Vector" d="M25.5726 0C26.7285 0 27.8172 0.221774 28.8387 0.665323C29.8602 1.10887 30.754 1.71371 31.5202 2.47984C32.2863 3.24597 32.8911 4.13978 33.3347 5.16129C33.7782 6.1828 34 7.27151 34 8.42742V25.2823C34 26.4382 33.7782 27.5336 33.3347 28.5685C32.8911 29.6035 32.2863 30.504 31.5202 31.2702C30.754 32.0363 29.8602 32.6411 28.8387 33.0847C27.8172 33.5282 26.7285 33.75 25.5726 33.75H8.67742C7.5215 33.75 6.43279 33.5282 5.41129 33.0847C4.38978 32.6411 3.49596 32.0363 2.72984 31.2702C1.96371 30.504 1.35887 29.6035 0.91532 28.5685C0.471771 27.5336 0.249997 26.4382 0.249997 25.2823V8.42742C0.249997 7.27151 0.471771 6.1828 0.91532 5.16129C1.35887 4.13978 1.96371 3.24597 2.72984 2.47984C3.49596 1.71371 4.38978 1.10887 5.41129 0.665323C6.43279 0.221774 7.5215 0 8.67742 0H25.5726ZM11.8629 12.6613H7.62903V26.371H11.8629V12.6613ZM9.76613 11.5726C10.3306 11.5726 10.8212 11.371 11.2379 10.9677C11.6546 10.5645 11.8629 10.0672 11.8629 9.47581C11.8629 8.88441 11.6546 8.3871 11.2379 7.98387C10.8212 7.58064 10.3306 7.37903 9.76613 7.37903C9.17473 7.37903 8.6707 7.58064 8.25403 7.98387C7.83736 8.3871 7.62903 8.88441 7.62903 9.47581C7.62903 10.0672 7.83736 10.5645 8.25403 10.9677C8.6707 11.371 9.17473 11.5726 9.76613 11.5726ZM26.621 18.4274C26.621 17.4597 26.3521 16.5121 25.8145 15.5847C25.2769 14.6573 24.578 13.9516 23.7177 13.4677C22.9382 13.0376 22.0309 12.8091 20.996 12.7823C19.961 12.7554 19.0269 12.9301 18.1935 13.3065V12.6613H13.9597V26.371H18.1935V17.9839L19.9274 17.1371C20.1425 17.0296 20.4382 16.9758 20.8145 16.9758C21.1909 16.9758 21.4731 17.043 21.6613 17.1774C21.8226 17.2581 21.9839 17.4328 22.1452 17.7016C22.3064 17.9704 22.3871 18.2124 22.3871 18.4274V26.371H26.621V18.4274Z" fill="black"/>
</g>
</svg>
